<svg width="300" height="326" viewBox="0 0 300 326" fill="none" xmlns="http://www.w3.org/2000/svg">
<path d="M0 162.967C0 252.972 72.9629 325.935 162.967 325.935C188.251 325.611 242.631 312.976 282.296 268C293.239 255.592 288.564 236.892 274.383 228.371C272.971 227.523 271.635 226.722 270.372 225.966C258.037 218.585 247.397 225.315 237.2 235.447C222.86 249.696 198.653 263.865 162.967 263.865C95.6776 263.865 60.9813 218.028 60.9813 162.967C60.9813 107.907 103.037 59.8929 162.967 59.8929C193.276 59.8929 216.87 73.245 232.548 87.2881C244.809 98.2706 263.21 103.384 277.496 95.2058C290.4 87.8184 295.947 71.8849 287.163 59.8875C267.054 32.423 226.971 0 162.967 0C72.9629 0 0 72.9629 0 162.967Z" fill="#AEBDE1"/>
<path d="M103.551 167.486H83.9486C78.4258 167.486 73.8791 171.985 74.6232 177.457C77.4722 198.41 88.8678 215.145 99.6351 226.088C105.151 231.694 113.551 227.352 113.551 219.487V177.486C113.551 171.964 109.074 167.486 103.551 167.486Z" fill="#D9E0F1"/>
<path d="M121.963 170.127V235.072C121.963 238.585 123.782 241.893 126.959 243.392C136.472 247.882 147.274 250.081 155.329 251.017C160.725 251.645 165.07 247.261 165.07 241.829V205.023V170.127C165.07 164.604 160.593 160.127 155.07 160.127H131.963C126.44 160.127 121.963 164.604 121.963 170.127Z" fill="#D9E0F1"/>
<path d="M175.312 238.879L175.873 147.985C175.907 142.487 180.374 138.047 185.873 138.047H214.299C219.822 138.047 224.296 142.51 224.262 148.033C224.124 169.88 223.65 204.753 223.602 226.176C223.597 228.354 222.932 230.501 221.338 231.986C214.173 238.662 199.532 244.45 187.487 248.208C181.303 250.138 175.272 245.357 175.312 238.879Z" fill="#D9E0F1"/>
</svg>
